<mxfile host="app.diagrams.net" agent="Mozilla/5.0 (X11; Linux x86_64) AppleWebKit/537.36 (KHTML, like Gecko) Chrome/136.0.0.0 Safari/537.36" version="27.0.3">
  <diagram name="Page-1" id="keciLELwyi9AGGWLbFc4">
    <mxGraphModel dx="729" dy="457" grid="1" gridSize="10" guides="1" tooltips="1" connect="1" arrows="1" fold="1" page="1" pageScale="1" pageWidth="850" pageHeight="1100" math="0" shadow="0">
      <root>
        <mxCell id="0" />
        <mxCell id="1" parent="0" />
        <mxCell id="L60qJWTPQSCmzR5dktys-2" value="" style="sketch=0;aspect=fixed;pointerEvents=1;shadow=0;dashed=0;html=1;labelPosition=center;verticalLabelPosition=bottom;verticalAlign=top;align=center;shape=mxgraph.mscae.enterprise.gateway;movable=1;resizable=1;rotatable=1;deletable=1;editable=1;locked=0;connectable=1;direction=south;fillColor=#dae8fc;strokeColor=#6c8ebf;" vertex="1" parent="1">
          <mxGeometry x="376.34" y="231.95" width="48.05" height="48.05" as="geometry" />
        </mxCell>
        <mxCell id="L60qJWTPQSCmzR5dktys-9" value="" style="sketch=0;aspect=fixed;pointerEvents=1;shadow=0;dashed=0;html=1;labelPosition=center;verticalLabelPosition=bottom;verticalAlign=top;align=center;shape=mxgraph.mscae.enterprise.internet;movable=1;resizable=1;rotatable=1;deletable=1;editable=1;locked=0;connectable=1;fillColor=#dae8fc;strokeColor=#6c8ebf;" vertex="1" parent="1">
          <mxGeometry x="319.73" y="60" width="161.28" height="100" as="geometry" />
        </mxCell>
        <mxCell id="L60qJWTPQSCmzR5dktys-16" value="" style="sketch=0;aspect=fixed;pointerEvents=1;shadow=0;dashed=0;html=1;labelPosition=center;verticalLabelPosition=bottom;verticalAlign=top;align=center;shape=mxgraph.mscae.enterprise.server_generic;fillColor=#dae8fc;strokeColor=#6c8ebf;" vertex="1" parent="1">
          <mxGeometry x="381.17" y="320" width="38.4" height="80" as="geometry" />
        </mxCell>
        <mxCell id="L60qJWTPQSCmzR5dktys-17" value="" style="sketch=0;aspect=fixed;pointerEvents=1;shadow=0;dashed=0;html=1;labelPosition=center;verticalLabelPosition=bottom;verticalAlign=top;align=center;shape=mxgraph.mscae.enterprise.shared_folder;fillColor=#dae8fc;strokeColor=#6c8ebf;" vertex="1" parent="1">
          <mxGeometry x="378.87" y="455" width="43" height="50" as="geometry" />
        </mxCell>
        <mxCell id="L60qJWTPQSCmzR5dktys-18" value="" style="sketch=0;aspect=fixed;pointerEvents=1;shadow=0;dashed=0;html=1;labelPosition=center;verticalLabelPosition=bottom;verticalAlign=top;align=center;shape=mxgraph.mscae.enterprise.server_generic;fillColor=#dae8fc;strokeColor=#6c8ebf;" vertex="1" parent="1">
          <mxGeometry x="281.33000000000004" y="440" width="38.4" height="80" as="geometry" />
        </mxCell>
        <mxCell id="L60qJWTPQSCmzR5dktys-19" value="" style="sketch=0;aspect=fixed;pointerEvents=1;shadow=0;dashed=0;html=1;labelPosition=center;verticalLabelPosition=bottom;verticalAlign=top;align=center;shape=mxgraph.mscae.enterprise.server_generic;fillColor=#dae8fc;strokeColor=#6c8ebf;" vertex="1" parent="1">
          <mxGeometry x="481.01" y="440" width="38.4" height="80" as="geometry" />
        </mxCell>
        <mxCell id="L60qJWTPQSCmzR5dktys-20" value="" style="endArrow=none;html=1;rounded=0;entryX=1;entryY=0.806;entryDx=0;entryDy=0;entryPerimeter=0;fillColor=#dae8fc;strokeColor=#6c8ebf;" edge="1" parent="1">
          <mxGeometry width="50" height="50" relative="1" as="geometry">
            <mxPoint x="400" y="320" as="sourcePoint" />
            <mxPoint x="399.84000000000003" y="280" as="targetPoint" />
          </mxGeometry>
        </mxCell>
        <mxCell id="L60qJWTPQSCmzR5dktys-21" value="" style="endArrow=none;html=1;rounded=0;entryX=1;entryY=0.806;entryDx=0;entryDy=0;entryPerimeter=0;exitX=0;exitY=0.5;exitDx=0;exitDy=0;exitPerimeter=0;fillColor=#dae8fc;strokeColor=#6c8ebf;" edge="1" parent="1" source="L60qJWTPQSCmzR5dktys-2">
          <mxGeometry width="50" height="50" relative="1" as="geometry">
            <mxPoint x="400.19" y="200" as="sourcePoint" />
            <mxPoint x="400.03000000000003" y="160" as="targetPoint" />
          </mxGeometry>
        </mxCell>
        <mxCell id="L60qJWTPQSCmzR5dktys-22" value="" style="endArrow=none;html=1;rounded=0;entryX=1;entryY=0.806;entryDx=0;entryDy=0;entryPerimeter=0;exitX=0.5;exitY=0.07;exitDx=0;exitDy=0;exitPerimeter=0;fillColor=#dae8fc;strokeColor=#6c8ebf;" edge="1" parent="1" source="L60qJWTPQSCmzR5dktys-17">
          <mxGeometry width="50" height="50" relative="1" as="geometry">
            <mxPoint x="400.03" y="450" as="sourcePoint" />
            <mxPoint x="400.06" y="400" as="targetPoint" />
          </mxGeometry>
        </mxCell>
        <mxCell id="L60qJWTPQSCmzR5dktys-25" value="" style="endArrow=none;html=1;rounded=0;exitX=0.992;exitY=0.903;exitDx=0;exitDy=0;exitPerimeter=0;fillColor=#dae8fc;strokeColor=#6c8ebf;" edge="1" parent="1">
          <mxGeometry width="50" height="50" relative="1" as="geometry">
            <mxPoint x="422.53599999999994" y="500.15" as="sourcePoint" />
            <mxPoint x="481.01" y="500" as="targetPoint" />
          </mxGeometry>
        </mxCell>
        <mxCell id="L60qJWTPQSCmzR5dktys-26" value="" style="endArrow=none;html=1;rounded=0;exitX=0.992;exitY=0.903;exitDx=0;exitDy=0;exitPerimeter=0;fillColor=#dae8fc;strokeColor=#6c8ebf;" edge="1" parent="1">
          <mxGeometry width="50" height="50" relative="1" as="geometry">
            <mxPoint x="320.39599999999996" y="500.15" as="sourcePoint" />
            <mxPoint x="378.87" y="500" as="targetPoint" />
          </mxGeometry>
        </mxCell>
      </root>
    </mxGraphModel>
  </diagram>
</mxfile>
